<?xml version="1.0" encoding="UTF-8" standalone="no"?>
<svg
   xmlns:dc="http://purl.org/dc/elements/1.1/"
   xmlns:cc="http://creativecommons.org/ns#"
   xmlns:rdf="http://www.w3.org/1999/02/22-rdf-syntax-ns#"
   xmlns:svg="http://www.w3.org/2000/svg"
   xmlns="http://www.w3.org/2000/svg"
   xmlns:xlink="http://www.w3.org/1999/xlink"
   xmlns:sodipodi="http://sodipodi.sourceforge.net/DTD/sodipodi-0.dtd"
   xmlns:inkscape="http://www.inkscape.org/namespaces/inkscape"
   width="48"
   height="48"
   version="1.1"
   id="svg297"
   sodipodi:docname="globe.svg"
   inkscape:version="0.92.3 (2405546, 2018-03-11)">
  <metadata
     id="metadata303">
    <rdf:RDF>
      <cc:Work
         rdf:about="">
        <dc:format>image/svg+xml</dc:format>
        <dc:type
           rdf:resource="http://purl.org/dc/dcmitype/StillImage" />
        <dc:title></dc:title>
      </cc:Work>
    </rdf:RDF>
  </metadata>
  <defs
     id="defs301" />
  <sodipodi:namedview
     pagecolor="#ffffff"
     bordercolor="#666666"
     borderopacity="1"
     objecttolerance="10"
     gridtolerance="10"
     guidetolerance="10"
     inkscape:pageopacity="0"
     inkscape:pageshadow="2"
     inkscape:window-width="2400"
     inkscape:window-height="1421"
     id="namedview299"
     showgrid="false"
     inkscape:zoom="10.429825"
     inkscape:cx="31.766591"
     inkscape:cy="-3.221738"
     inkscape:window-x="257"
     inkscape:window-y="-9"
     inkscape:window-maximized="1"
     inkscape:current-layer="svg297" />
  <g
     id="g295"
     transform="matrix(0.33107345,0,0,0.33107345,2.6757062,2.9468927)">
    <radialGradient
       id="SVGID_1_"
       cx="64"
       cy="4"
       gradientUnits="userSpaceOnUse"
       r="120.0046">
      <stop
         offset="0"
         style="stop-color:#42A5F5"
         id="stop2" />
      <stop
         offset="0.3522"
         style="stop-color:#42A5F5"
         id="stop4" />
      <stop
         offset="0.6798"
         style="stop-color:#2B8BE2"
         id="stop6" />
      <stop
         offset="1"
         style="stop-color:#1976D2"
         id="stop8" />
    </radialGradient>
    <circle
       cx="64"
       cy="64"
       r="60"
       style="fill:url(#SVGID_1_)"
       id="circle11" />
    <g
       id="g289">
      <defs
         id="defs14">
        <circle
           id="SVGID_2_"
           cx="64"
           cy="64"
           r="60" />
      </defs>
      <clipPath
         id="SVGID_3_">
        <use
           style="overflow:visible"
           xlink:href="#SVGID_2_"
           id="use16"
           x="0"
           y="0"
           width="100%"
           height="100%" />
      </clipPath>
      <g
         style="opacity:0.2"
         clip-path="url(#SVGID_3_)"
         id="g47">
        <path
           d="m 175.51,118.43 c 1.83,0 1.1,6.17 -0.62,8.44 -0.47,0.62 -0.87,0.87 -1.21,0.87 -1.08,0 -1.68,-2.44 -2.35,-3.89 -0.89,-1.92 3.25,-5.03 3.43,-5.15 0.28,-0.18 0.53,-0.27 0.75,-0.27 m 0,-3 c -0.81,0 -1.62,0.26 -2.39,0.76 -0.34,0.22 -1.6,1.19 -2.69,2.38 -2.67,2.91 -2.46,5.16 -1.82,6.54 0.12,0.26 0.26,0.62 0.41,1.01 0.71,1.84 1.79,4.62 4.66,4.62 1.36,0 2.57,-0.69 3.61,-2.06 1.9,-2.51 3.07,-8.21 1.67,-11.03 -0.7,-1.39 -1.99,-2.22 -3.45,-2.22 z"
           style="fill:#424242"
           id="path19"
           inkscape:connector-curvature="0" />
        <path
           d="m 169.27,124.85 c 0.58,0 1.24,0.34 1.56,0.86 1.16,1.9 1.95,5.76 -7.47,8.99 -2.91,0.99 -4.45,1.43 -5.04,1.43 -2.08,0 7.27,-5.3 9.99,-10.73 0.19,-0.39 0.56,-0.55 0.96,-0.55 m 0,-3 v 0 c -1.59,0 -2.96,0.82 -3.65,2.2 -1.29,2.57 -4.93,5.54 -7.1,7.32 -2.49,2.03 -4.14,3.38 -3.32,5.66 0.36,1.02 1.37,2.1 3.12,2.1 0.88,0 2.1,-0.25 6.01,-1.59 5.48,-1.87 8.68,-4.27 9.78,-7.32 0.71,-1.98 0.46,-4.14 -0.72,-6.07 -0.86,-1.4 -2.47,-2.3 -4.12,-2.3 z"
           style="fill:#424242"
           id="path21"
           inkscape:connector-curvature="0" />
        <path
           d="m -56.39,10.76 c 0.61,0 1.23,0.16 1.78,0.5 l 4.16,2.51 c 3.15,1.9 6.74,2.89 10.37,2.89 1.1,0 2.21,-0.09 3.32,-0.28 l 12.47,-2.09 c 0.21,-0.04 0.42,-0.05 0.63,-0.05 1.93,0 3.6,1.48 3.76,3.48 l 0.42,5.13 c 0.19,2.38 -1.46,4.52 -3.81,4.94 l -1.33,0.24 c -3,0.53 -5.54,2.53 -6.75,5.33 v 0 c -0.51,1.17 -0.25,2.53 0.64,3.44 l 7.79,7.89 c 0.34,0.35 0.81,0.54 1.29,0.54 0.09,0 0.19,-0.01 0.28,-0.02 0.81,-0.13 1.44,-0.79 1.52,-1.61 l 0.86,-8.96 c 0.19,-1.96 1.83,-3.45 3.8,-3.45 h 0.28 c 1.48,0 2.83,0.86 3.46,2.2 l 1.76,3.76 c 0.3,0.64 0.93,1 1.58,1 0.32,0 0.65,-0.09 0.94,-0.28 v 0 c 0.29,-0.19 0.62,-0.28 0.94,-0.28 0.67,0 1.31,0.38 1.6,1.05 l 4.56,10.5 c 0.98,2.25 -0.07,4.87 -2.34,5.82 l -3.68,1.54 c -6.26,2.62 -11.78,6.72 -16.11,11.95 l -0.09,0.11 c -0.22,0.27 -0.33,0.61 -0.31,0.95 l 0.25,3.89 c 0.05,0.71 -0.47,1.34 -1.17,1.43 -0.13,0.02 -0.25,0.03 -0.38,0.03 -1.23,0 -2.34,-0.8 -2.71,-2 l -0.01,-0.05 c -0.38,-1.23 -1.51,-2.04 -2.76,-2.04 -0.14,0 -0.29,0.01 -0.44,0.03 l -2.5,0.38 c -1.88,0.28 -3.47,1.53 -4.2,3.29 l -0.73,1.76 c -0.25,0.62 -0.21,1.32 0.12,1.9 l 0.08,0.13 c 0.41,0.71 1.14,1.09 1.88,1.09 0.51,0 1.03,-0.18 1.45,-0.56 0.4,-0.36 0.92,-0.56 1.45,-0.56 0.04,0 0.08,0 0.12,0 l 1.54,0.09 c 0.9,0.05 1.5,0.95 1.2,1.8 l -0.22,0.63 c -0.43,1.23 0.48,2.52 1.79,2.52 v 0 c 0.96,0 1.77,0.72 1.88,1.68 l 0.25,2.28 c 0.1,0.87 0.78,1.56 1.65,1.67 l 0.21,0.03 c 0.08,0.01 0.16,0.01 0.24,0.01 0.66,0 1.27,-0.34 1.62,-0.91 v 0 c 0.96,-1.59 2.68,-2.54 4.51,-2.54 0.23,0 0.46,0.02 0.7,0.05 l 5.06,0.68 c 2.78,0.37 5.42,1.44 7.67,3.1 l 3.61,2.66 c 1.09,0.8 1.89,1.92 2.3,3.21 0.53,1.67 1.73,3.06 3.31,3.82 l 7.04,3.39 c 2.06,0.99 2.87,3.52 1.76,5.52 l -4.85,8.78 c -0.55,1 -1.5,1.72 -2.62,1.97 l -2.85,0.64 c -1.73,0.39 -3.01,1.86 -3.14,3.63 l -0.03,0.44 c -0.14,1.78 -0.89,3.46 -2.12,4.76 l -14.9,15.63 c -1.76,1.85 -1.95,4.7 -0.44,6.76 l 1.06,1.45 c 0.79,1.07 -0.01,2.54 -1.27,2.54 -0.08,0 -0.17,-0.01 -0.26,-0.02 l -2.75,-0.42 c -1.78,-0.27 -3.26,-1.52 -3.83,-3.22 l -1.18,-3.49 c -0.59,-1.76 -0.64,-3.66 -0.13,-5.44 l 6.22,-21.92 c 0.68,-2.41 -0.02,-5 -1.82,-6.74 l -1.3,-1.25 c -1.5,-1.45 -2.54,-3.31 -2.98,-5.36 l -1.33,-6.21 c -0.43,-2 -0.05,-4.1 1.05,-5.83 l 0.23,-0.36 c 0.7,-1.1 0.1,-2.57 -1.18,-2.86 l -0.45,-0.1 c -0.44,-0.1 -0.83,-0.35 -1.1,-0.72 l -3.58,-4.81 c -0.16,-0.21 -0.37,-0.37 -0.61,-0.46 L -41,82 c -2.23,-0.84 -4.11,-2.42 -5.32,-4.48 l -8.49,-14.51 c -1.16,-1.98 -1.82,-4.2 -1.93,-6.49 l -0.21,-4.25 C -57.09,49.4 -58,46.62 -59.57,44.22 l -2.16,-3.31 c -1.94,-2.97 -4.53,-5.46 -7.58,-7.27 l -0.64,-0.38 c -1.09,-0.65 -2.32,-0.98 -3.55,-0.98 -0.23,0 -0.45,0.01 -0.68,0.03 -0.6,0.06 -1.2,0.09 -1.8,0.09 -2.13,0 -4.24,-0.39 -6.19,-1.28 l -7.24,-3.33 c -0.56,-0.26 -0.8,-1 -0.41,-1.47 0,0 0.01,-0.01 0.01,-0.01 l 1.83,-2.19 c 0.67,-0.79 0.23,-2.01 -0.79,-2.2 v 0 c -0.83,-0.16 -1.32,-1.03 -1.02,-1.82 l 0.68,-1.78 c 0.19,-0.5 0.65,-0.84 1.18,-0.87 v 0 c 1.08,-0.07 21.55,-0.63 27.11,-5.27 0.8,-0.66 1.96,-0.61 2.9,-1.06 0.5,-0.24 1.01,-0.36 1.53,-0.36 m 0,-3 v 0 c -0.96,0 -1.93,0.22 -2.8,0.64 -0.1,0.04 -0.39,0.12 -0.61,0.17 -0.8,0.19 -1.89,0.45 -2.9,1.29 -2.14,1.78 -9.79,3.92 -24.87,4.56 -0.26,0.01 -0.43,0.02 -0.51,0.02 -1.7,0.11 -3.19,1.2 -3.8,2.79 l -0.68,1.78 c -0.46,1.21 -0.37,2.55 0.27,3.68 0.21,0.37 0.47,0.71 0.77,1 l -0.56,0.67 -0.01,0.01 -0.02,0.02 c -0.76,0.93 -1.04,2.14 -0.77,3.33 0.28,1.21 1.12,2.24 2.25,2.76 l 7.24,3.33 c 2.25,1.03 4.75,1.56 7.44,1.56 0.69,0 1.39,-0.03 2.09,-0.1 0.13,-0.01 0.26,-0.02 0.38,-0.02 0.71,0 1.41,0.19 2.02,0.55 l 0.64,0.38 c 2.64,1.57 4.93,3.76 6.61,6.33 l 2.16,3.31 c 1.28,1.96 2.02,4.23 2.13,6.56 l 0.21,4.25 c 0.14,2.76 0.95,5.47 2.34,7.85 l 8.49,14.51 c 1.55,2.65 3.98,4.7 6.85,5.78 l 8.31,3.12 3.29,4.42 c 0.49,0.66 1.13,1.18 1.87,1.52 -1.13,2.21 -1.47,4.72 -0.95,7.18 l 1.33,6.21 c 0.56,2.64 1.89,5.02 3.83,6.89 l 1.3,1.25 c 1.01,0.97 1.4,2.41 1.01,3.76 l -6.22,21.92 c -0.68,2.38 -0.61,4.88 0.18,7.22 l 1.18,3.49 c 0.94,2.78 3.32,4.78 6.22,5.22 l 2.75,0.42 c 0.24,0.04 0.48,0.05 0.71,0.05 1.73,0 3.3,-0.97 4.08,-2.52 0.79,-1.55 0.64,-3.38 -0.39,-4.79 l -1.06,-1.45 c -0.65,-0.89 -0.57,-2.12 0.19,-2.92 L 0.5,130.13 c 1.71,-1.79 2.75,-4.13 2.94,-6.59 l 0.03,-0.44 c 0.04,-0.46 0.36,-0.84 0.81,-0.94 l 2.85,-0.64 c 1.95,-0.44 3.62,-1.7 4.58,-3.44 l 4.85,-8.78 c 0.92,-1.67 1.12,-3.68 0.54,-5.5 -0.58,-1.82 -1.9,-3.34 -3.63,-4.17 L 6.43,96.24 C 5.6,95.84 4.96,95.1 4.68,94.22 4.08,92.32 2.91,90.68 1.3,89.5 l -3.61,-2.66 c -2.66,-1.96 -5.79,-3.22 -9.06,-3.65 l -5.06,-0.68 c -0.36,-0.05 -0.73,-0.07 -1.09,-0.07 -2.04,0 -3.99,0.77 -5.49,2.09 -0.23,-1.97 -1.61,-3.55 -3.42,-4.1 0.21,-1.11 -0.02,-2.26 -0.66,-3.23 -0.77,-1.15 -2,-1.85 -3.37,-1.93 L -32,75.18 c -0.1,-0.01 -0.2,-0.01 -0.29,-0.01 -0.47,0 -0.94,0.06 -1.39,0.19 0.35,-0.68 1.02,-1.15 1.78,-1.27 l 2.41,-0.37 c 0.8,2.46 3.02,4.08 5.56,4.08 0.26,0 0.52,-0.02 0.77,-0.05 2.26,-0.3 3.92,-2.32 3.77,-4.6 l -0.21,-3.24 c 3.96,-4.65 9.01,-8.35 14.64,-10.71 l 3.68,-1.54 C 0.56,56.89 1.98,55.44 2.73,53.59 3.47,51.74 3.45,49.71 2.65,47.88 l -4.56,-10.5 c -0.75,-1.73 -2.46,-2.85 -4.35,-2.85 -0.43,0 -0.85,0.06 -1.25,0.17 l -1.24,-2.65 c -1.12,-2.38 -3.54,-3.92 -6.17,-3.92 h -0.28 c -3.53,0 -6.45,2.65 -6.79,6.16 l -0.62,6.43 -6,-6.08 c -0.04,-0.04 -0.05,-0.09 -0.03,-0.14 0.82,-1.88 2.51,-3.21 4.52,-3.57 l 1.33,-0.24 c 3.9,-0.69 6.6,-4.18 6.28,-8.13 l -0.42,-5.13 c -0.28,-3.5 -3.25,-6.23 -6.75,-6.24 -0.38,0 -0.75,0.03 -1.13,0.09 l -12.47,2.09 c -0.93,0.16 -1.88,0.23 -2.82,0.23 -3.11,0 -6.16,-0.85 -8.82,-2.46 l -4.16,-2.51 c -0.99,-0.55 -2.14,-0.87 -3.31,-0.87 z"
           style="fill:#424242"
           id="path23"
           inkscape:connector-curvature="0" />
        <path
           d="m 3.97,5.8 c 1.1,0 2.18,0.2 2.99,0.57 l 12.29,2.32 c 1.27,0.58 1.69,1.47 1.07,2.26 L 4.84,26.12 c -0.52,0.66 -1.7,1.15 -3.14,1.3 l -2.17,0.23 c -0.32,0.03 -0.63,0.05 -0.93,0.05 -2.39,0 -4.42,-0.96 -4.33,-2.16 l 0.16,-2.34 c 0.05,-0.69 -0.62,-1.35 -1.78,-1.76 l -1.27,-0.45 c -1.49,-0.52 -2.13,-1.45 -1.59,-2.3 0.39,-0.61 0.17,-1.28 -0.59,-1.8 l -2.63,-1.83 c -0.96,-0.66 -1.04,-1.53 -0.2,-2.23 L -4.68,7.19 C -4.01,6.63 -2.85,6.25 -1.52,6.16 L 3.37,5.82 C 3.56,5.8 3.77,5.8 3.97,5.8 m 0,-3 C 3.7,2.8 3.42,2.81 3.15,2.83 L -1.74,3.17 C -3.62,3.3 -5.27,3.86 -6.43,4.75 l -8.81,5.55 -0.17,0.11 -0.16,0.13 c -1.12,0.94 -1.7,2.19 -1.64,3.52 0.06,1.36 0.8,2.59 2.06,3.47 l 1.78,1.23 c -0.08,0.62 -0.02,1.26 0.19,1.87 0.49,1.42 1.76,2.56 3.56,3.19 l 0.97,0.34 -0.08,1.17 c -0.08,1.15 0.34,2.28 1.17,3.18 1.28,1.37 3.58,2.19 6.15,2.19 0.41,0 0.83,-0.02 1.25,-0.06 L 2.01,30.41 C 3.3,30.28 5.62,29.8 7.04,28.16 L 22.43,13.1 22.57,12.96 22.69,12.81 C 23.5,11.78 23.8,10.49 23.5,9.26 23.16,7.86 22.1,6.69 20.5,5.96 L 20.17,5.81 19.81,5.74 7.83,3.48 C 6.71,3.04 5.35,2.8 3.97,2.8 Z"
           style="fill:#424242"
           id="path25"
           inkscape:connector-curvature="0" />
        <path
           d="m 38.9,21.54 c 0.62,0 1.24,0.29 1.64,0.82 l 3.86,5.2 c 0.81,1.1 0.95,2.55 0.34,3.78 v 0.01 c -0.36,0.73 -0.96,1.32 -1.7,1.68 l -1.99,0.95 c -0.2,0.09 -0.4,0.14 -0.6,0.14 -0.71,0 -1.36,-0.56 -1.38,-1.34 -0.02,-0.51 -0.43,-0.8 -0.84,-0.8 -0.3,0 -0.6,0.15 -0.75,0.49 v 0 c -0.14,0.31 -0.44,0.49 -0.76,0.49 -0.15,0 -0.31,-0.04 -0.45,-0.13 l -0.42,-0.27 c -1.26,-0.81 -1.69,-2.44 -1,-3.77 l 1.09,-2.08 c 0.08,-0.16 0.11,-0.34 0.08,-0.51 L 35.8,24.84 c -0.14,-0.85 0.22,-1.71 0.93,-2.21 l 0.97,-0.69 c 0.38,-0.28 0.79,-0.4 1.2,-0.4 m 0,-3 c -1.05,0 -2.06,0.32 -2.91,0.93 l -0.97,0.69 c -1.65,1.17 -2.47,3.14 -2.15,5.13 l 0.1,0.65 -0.75,1.44 c -1.42,2.72 -0.55,6.02 2.03,7.68 l 0.42,0.27 c 0.62,0.4 1.34,0.61 2.07,0.61 0.23,0 0.46,-0.02 0.68,-0.06 0.79,0.76 1.86,1.22 3.04,1.22 0.66,0 1.29,-0.14 1.89,-0.43 l 1.99,-0.95 c 1.34,-0.64 2.44,-1.72 3.09,-3.06 1.11,-2.25 0.87,-4.89 -0.62,-6.9 l -3.86,-5.2 C 42,19.3 40.49,18.54 38.9,18.54 Z"
           style="fill:#424242"
           id="path27"
           inkscape:connector-curvature="0" />
        <path
           d="m 129.99,8.7 c 0.71,0 1.41,0.05 2.11,0.15 l 19.16,2.82 34.12,4.15 c 1.49,0.18 2.76,1.19 3.28,2.6 l 0.88,2.4 c 0.35,0.94 0,2 -0.83,2.56 l -4.96,3.32 c -0.4,0.27 -0.85,0.44 -1.32,0.51 l -3.75,0.54 c -1.17,0.17 -1.97,1.26 -1.8,2.42 l 0.2,1.33 c 0.04,0.26 -0.03,0.53 -0.2,0.74 l -3.93,4.86 c -0.28,0.35 -0.67,0.51 -1.06,0.51 -0.67,0 -1.32,-0.48 -1.38,-1.27 l -0.16,-1.96 c -0.07,-0.94 0.22,-1.88 0.81,-2.61 l 6.1,-7.51 c 0.18,-0.22 0.02,-0.55 -0.26,-0.55 0,0 -0.01,0 -0.01,0 l -0.74,0.02 c -1.81,0.06 -3.56,0.7 -4.99,1.82 l -1.7,1.34 c -1.19,0.94 -2.66,1.45 -4.17,1.45 -0.06,0 -0.12,0 -0.18,0 l -1.06,-0.03 c -0.07,0 -0.14,0 -0.22,0 -1.99,0 -3.91,0.75 -5.39,2.09 l -2.68,2.46 c -0.44,0.4 -0.4,1.1 0.07,1.46 l 1.4,1.05 c 0.9,0.67 1.27,1.85 0.92,2.92 l -3.3,10.1 c -0.12,0.37 -0.45,0.62 -0.83,0.65 l -2.77,0.2 c -0.24,0.02 -0.46,0.12 -0.62,0.3 l -2.25,2.39 c -0.22,0.24 -0.31,0.58 -0.22,0.89 l 0.85,3.18 c 0.09,0.33 -0.01,0.68 -0.25,0.92 l -1.36,1.34 c -0.19,0.19 -0.43,0.27 -0.66,0.27 -0.42,0 -0.83,-0.28 -0.93,-0.76 l -0.64,-3.12 c -0.03,-0.17 -0.11,-0.32 -0.23,-0.45 l -1.47,-1.62 c -0.19,-0.21 -0.44,-0.31 -0.7,-0.31 -0.22,0 -0.44,0.08 -0.62,0.23 l -2.4,2.1 c -0.31,0.27 -0.41,0.72 -0.24,1.1 l 1.89,4.19 c 0.66,1.46 0.66,3.14 0,4.6 l -1.6,3.54 c -0.48,1.06 -1.54,1.74 -2.69,1.74 -0.03,0 -0.06,0 -0.08,0 l -4.68,-0.13 c -0.02,0 -0.05,0 -0.07,0 -0.71,0 -1.42,0.3 -1.85,0.87 -0.86,1.13 -0.87,2.68 -0.05,3.81 l 1.11,1.55 c 0.68,0.94 0.64,2.22 -0.1,3.11 l -1.55,1.89 c -0.19,0.23 -0.46,0.35 -0.73,0.35 -0.26,0 -0.52,-0.11 -0.71,-0.32 l -1.88,-2.13 c -0.2,-0.22 -0.45,-0.32 -0.7,-0.32 -0.48,0 -0.94,0.36 -0.95,0.92 -0.02,0.64 -0.05,1.17 -0.08,1.23 -0.07,0.1 2.04,2.53 3.22,3.88 0.52,0.59 0.87,1.3 1.03,2.06 l 0.57,2.69 c 0.42,1.99 1.88,3.59 3.82,4.19 l 6.64,2.05 c 0.4,0.12 0.57,0.6 0.34,0.95 l -0.02,0.03 c -0.12,0.18 -0.31,0.28 -0.52,0.28 -0.05,0 -0.09,0 -0.14,-0.02 l -9.13,-2.05 c -1.15,-0.26 -2.18,-0.87 -2.96,-1.75 l -7.22,-8.15 c -0.22,-0.25 -0.21,-0.62 0.03,-0.86 l 0.1,-0.1 c 0.12,-0.12 0.28,-0.18 0.44,-0.18 0.11,0 0.22,0.03 0.32,0.09 l 2.65,1.57 c 0.11,0.06 0.22,0.09 0.32,0.09 0.43,0 0.78,-0.46 0.56,-0.91 l -1.49,-2.94 c -0.02,-0.07 -0.04,-0.14 -0.06,-0.21 l -0.58,-4.8 c -0.07,-0.56 -0.55,-0.94 -1.07,-0.94 -0.13,0 -0.25,0.02 -0.38,0.07 -0.15,0.06 -0.3,0.08 -0.45,0.08 -0.45,0 -0.87,-0.24 -1.06,-0.67 l -2.19,-4.96 c -0.16,-0.36 -0.51,-0.56 -0.87,-0.56 -0.19,0 -0.38,0.06 -0.55,0.18 l -3.99,2.87 c -1.63,1.18 -2.68,2.99 -2.89,4.99 l -0.09,0.9 c -0.05,0.47 -0.28,0.9 -0.64,1.2 l -0.93,0.79 c -0.35,0.3 -0.77,0.43 -1.18,0.43 -0.76,0 -1.49,-0.47 -1.75,-1.28 l -1.69,-5.34 c -0.38,-1.19 -0.98,-2.29 -1.79,-3.24 L 98.6,67.9 C 98.03,67.23 97.24,66.78 96.38,66.64 L 91.24,65.8 c -2.13,-0.35 -3.97,-1.51 -5.6,-2.93 -0.27,-0.24 -0.62,-0.36 -0.96,-0.36 -0.38,0 -0.76,0.15 -1.06,0.45 -0.43,0.44 -0.5,1.13 -0.25,1.7 l 1.35,3 c 0.16,0.35 0.51,0.56 0.86,0.56 0.18,0 0.37,-0.05 0.53,-0.16 l 0.85,-0.58 c 0.04,-0.03 0.08,-0.04 0.13,-0.04 0.9,0 3.59,4.03 1.88,5.03 l -5.89,3.44 c -0.63,0.37 -1.31,0.54 -1.99,0.54 -1.42,0 -2.8,-0.77 -3.51,-2.13 L 72.99,65.48 C 72.83,65.17 72.5,64.97 72.15,64.97 v 0 c -0.69,0 -1.15,0.71 -0.86,1.34 l 4.93,10.91 c 0.72,1.59 2.21,2.43 3.82,2.43 0.67,0 1.35,-0.14 2.01,-0.43 0.2,-0.09 0.39,-0.13 0.59,-0.13 0.92,0 1.72,0.91 1.51,1.91 l -0.33,1.6 c -0.34,1.65 -1.18,3.15 -2.42,4.29 l -3.03,2.79 c -1.33,1.22 -2,3 -1.83,4.8 l -0.23,5.16 c -0.01,1.1 -0.5,2.13 -1.31,2.87 -1.27,1.16 -2.19,2.53 -3.05,4.03 l -3.83,6.74 c -1.24,2.18 -3.31,3.77 -5.74,4.41 L 61.22,118 c -0.27,0.07 -0.55,0.11 -0.82,0.11 -1.31,0 -2.53,-0.8 -3.02,-2.08 l -3.52,-9.23 c -0.83,-2.17 -1.07,-4.51 -0.7,-6.81 l 0.11,-0.67 c 0.28,-1.74 0.18,-3.52 -0.29,-5.22 l -1.67,-6.03 c -0.5,-1.81 -2.15,-3.06 -4.02,-3.06 -0.06,0 -0.12,0 -0.18,0 l -6.79,0.29 c -0.09,0 -0.19,0.01 -0.28,0.01 -1.66,0 -3.26,-0.63 -4.48,-1.76 l -3.14,-2.92 c -1.67,-1.56 -2.53,-3.8 -2.31,-6.08 l 0.25,-2.64 c 0.32,-3.41 1.7,-6.63 3.95,-9.22 l 1.07,-1.23 c 1.9,-2.18 4.47,-3.67 7.31,-4.21 l 7.33,-1.4 c 0.13,-0.02 0.25,-0.04 0.37,-0.04 1.05,0 1.95,0.84 1.97,1.93 0.02,0.74 0.28,1.45 0.87,1.9 l 4.32,3.29 c 0.17,0.13 0.37,0.19 0.57,0.19 0.28,0 0.55,-0.12 0.74,-0.35 l 1.8,-2.21 c 0.18,-0.22 0.45,-0.35 0.73,-0.35 0.09,0 0.18,0.01 0.26,0.04 l 7.86,2.26 c 0.09,0.03 0.18,0.04 0.26,0.04 0.39,0 0.75,-0.24 0.89,-0.63 l 1.09,-3.03 c 0.21,-0.59 -0.2,-1.22 -0.82,-1.27 L 67.12,57.34 C 66.81,57.32 66.54,57.15 66.38,56.88 L 66.2,56.59 c -0.21,-0.35 -0.22,-0.8 -0.01,-1.16 0.51,-0.83 1.08,-1.61 1.7,-2.36 0.23,-0.27 0.56,-0.42 0.91,-0.42 0.04,0 0.08,0 0.11,0.01 2.46,0.23 6.69,0.62 7.48,0.62 0.09,0 0.13,0 0.13,-0.01 0,-0.14 1.5,-3.09 1.32,-3.18 -0.15,-0.08 -6.28,-3.16 -8.41,-4.23 -0.13,-0.07 -0.28,-0.1 -0.42,-0.1 -0.3,0 -0.59,0.14 -0.77,0.4 l -2.55,3.59 c -0.25,0.36 -0.23,0.84 0.06,1.17 l 0.31,0.36 c 0.17,0.2 0.22,0.48 0.12,0.72 -0.27,0.61 -0.62,1.24 -1.01,1.82 -0.14,0.21 -0.38,0.32 -0.63,0.32 -0.08,0 -0.16,-0.01 -0.24,-0.04 -0.23,-0.07 -0.49,-0.14 -0.73,-0.14 -0.28,0 -0.51,0.09 -0.59,0.35 l -0.32,1.07 c -0.13,0.43 -0.52,0.68 -0.91,0.68 -0.25,0 -0.5,-0.1 -0.69,-0.31 l -1.7,-1.85 c -0.21,-0.23 -0.29,-0.54 -0.23,-0.84 0.27,-1.28 -0.09,-2.6 -1.09,-3.45 l -1.95,-1.64 c -0.23,-0.2 -0.53,-0.3 -0.82,-0.3 -0.24,0 -0.48,0.07 -0.68,0.22 -0.64,0.47 -0.57,1.23 -0.1,1.6 l 2.66,2.06 c 0.82,0.64 0.63,2.1 -0.86,2.32 -0.1,0.01 -0.2,0.02 -0.29,0.02 -0.72,0 -1.41,-0.38 -1.85,-0.97 l -1.99,-2.65 c -0.64,-0.84 -1.62,-1.31 -2.63,-1.31 -0.4,0 -0.8,0.07 -1.19,0.22 l -0.56,0.22 c -1.17,0.45 -2.16,1.26 -2.84,2.32 l -1.52,2.35 c -0.76,1.17 -2.04,1.85 -3.41,1.85 -0.2,0 -0.41,-0.02 -0.62,-0.05 l -2.2,-0.34 c -1.15,-0.18 -1.98,-1.19 -1.92,-2.49 l 0.03,-0.61 c 0.09,-1.96 1.68,-3.55 3.59,-3.55 0.12,0 0.25,0.01 0.37,0.02 0.07,0.01 0.14,0.01 0.21,0.01 1.37,0 2.3,-1.45 1.67,-2.71 l -0.76,-1.54 c -0.57,-1.15 -0.04,-2.53 1.14,-3.02 l 2.92,-1.2 c 1.03,-0.42 1.78,-1.34 1.98,-2.43 v 0 c 0.13,-0.67 0.71,-1.15 1.39,-1.15 h 0.39 c 0.96,0 1.63,-0.93 1.34,-1.84 -0.15,-0.47 0.02,-1.01 0.47,-1.3 0.19,-0.12 0.39,-0.18 0.6,-0.18 0.45,0 0.88,0.29 1.08,0.75 l 0.37,0.87 c 0.16,0.38 0.51,0.64 0.92,0.68 l 5.21,0.58 c 0.03,0 0.07,0.01 0.1,0.01 0.38,0 0.73,-0.23 0.88,-0.59 l 1.38,-3.41 c 0.15,-0.37 0.51,-0.59 0.88,-0.59 0.15,0 0.3,0.03 0.44,0.11 l 0.9,0.47 c 0.13,0.06 0.23,0.08 0.33,0.08 0.22,0 0.43,-0.11 0.54,-0.32 v 0 c 0.14,-0.25 0.1,-0.57 -0.12,-0.77 L 62.9,30.82 c -0.28,-0.26 -0.38,-0.67 -0.23,-1.04 l 0.3,-0.77 c 0.12,-0.31 0.4,-0.53 0.72,-0.59 l 1.35,-0.23 c 0.85,-0.14 1.08,-1.26 0.36,-1.73 l -0.15,-0.1 c -0.15,-0.1 -0.33,-0.15 -0.52,-0.15 -0.02,0 -0.04,0 -0.05,0 -0.08,0 -0.16,0.01 -0.24,0.01 -1.61,0 -3.09,-0.93 -3.78,-2.41 l -0.32,-0.69 c -0.23,-0.5 0.01,-1.09 0.53,-1.29 l 0.09,-0.03 c 0.26,-0.1 0.46,-0.3 0.56,-0.56 l 1.15,-3.17 c 0.11,-0.31 -0.04,-0.65 -0.34,-0.79 l -0.39,-0.17 c -0.08,-0.04 -0.17,-0.05 -0.25,-0.05 -0.22,0 -0.43,0.12 -0.55,0.32 l -3.35,6.06 c -0.25,0.46 -0.14,1.04 0.27,1.37 1.01,0.81 1.21,2.29 0.76,3.51 l -1.4,3.82 c -0.08,0.21 -0.22,0.4 -0.42,0.5 -0.4,0.2 -0.83,0.29 -1.24,0.29 -1.14,0 -2.22,-0.7 -2.63,-1.86 l -0.58,-1.63 c -0.13,-0.38 -0.47,-0.6 -0.86,-0.6 -0.24,0 -0.49,0.08 -0.73,0.27 l -1.24,0.94 c -0.29,0.22 -0.65,0.35 -1.01,0.35 -0.15,0 -0.31,-0.02 -0.46,-0.07 -0.63,-0.22 -1.03,-0.78 -1.06,-1.4 l -0.12,-2.88 c -0.05,-1.25 0.48,-2.44 1.43,-3.24 1.17,-0.98 2.12,-2.19 2.55,-3.66 l 0.75,-2.57 c 0.37,-1.27 1.26,-2.33 2.45,-2.91 l 3.94,-1.94 c 0.73,-0.36 1.53,-0.54 2.33,-0.54 0.33,0 0.67,0.03 1,0.1 l 12.49,2.41 c 0.7,0.14 1.42,0.2 2.13,0.2 0.35,0 0.69,-0.02 1.03,-0.05 l 23.79,0.47 c 0.2,0 0.4,0.01 0.6,0.01 2.39,0 4.78,-0.28 7.11,-0.83 l 19.8,-4.7 c 0.5,-0.07 1.01,-0.1 1.52,-0.1 M 86.11,56.25 c 0.48,0 0.9,-0.37 0.94,-0.86 0.12,-1.39 0.29,-3.74 0.13,-4.02 -0.14,-0.25 -1.07,-1.41 -1.76,-2.24 -0.38,-0.46 -0.24,-1.16 0.29,-1.44 l 0.8,-0.42 c 0.39,-0.21 0.59,-0.65 0.47,-1.08 L 86.85,45.7 c -0.1,-0.43 -0.49,-0.7 -0.9,-0.7 -0.16,0 -0.32,0.04 -0.47,0.12 l -3.81,2.16 c -0.45,0.25 -0.61,0.81 -0.37,1.27 l 1.74,3.29 c 0.12,0.23 0.14,0.49 0.07,0.73 l -0.64,1.99 c -0.18,0.55 0.18,1.13 0.74,1.22 l 2.73,0.46 c 0.06,0.01 0.12,0.01 0.17,0.01 M 129.99,5.7 c -0.61,0 -1.23,0.03 -1.84,0.1 -0.13,0.01 -0.25,0.03 -0.38,0.06 l -19.8,4.7 c -2.1,0.5 -4.26,0.75 -6.42,0.75 -0.18,0 -0.36,0 -0.54,-0.01 L 77.22,10.83 c -0.02,0 -0.04,0 -0.06,0 -0.09,0 -0.18,0 -0.28,0.01 -0.25,0.02 -0.51,0.03 -0.76,0.03 -0.52,0 -1.05,-0.05 -1.56,-0.15 L 62.07,8.32 C 61.55,8.22 61.03,8.17 60.5,8.17 c -1.26,0 -2.52,0.29 -3.65,0.85 l -3.94,1.94 c -1.94,0.95 -3.4,2.69 -4.01,4.76 l -0.75,2.57 c -0.22,0.76 -0.76,1.5 -1.6,2.2 -1.66,1.39 -2.6,3.51 -2.51,5.67 l 0.12,2.88 c 0.07,1.76 1.13,3.28 2.73,3.98 -0.14,0.33 -0.24,0.67 -0.3,1.03 -1.55,0.46 -2.76,1.76 -3.07,3.41 -0.02,0.09 -0.08,0.17 -0.17,0.21 l -2.92,1.2 c -1.33,0.54 -2.39,1.63 -2.9,2.97 -0.51,1.34 -0.44,2.85 0.2,4.14 -2.96,0.55 -5.24,3.12 -5.39,6.29 L 32.3,52.9 c -0.1,2.08 0.89,3.91 2.5,4.89 -0.59,0.51 -1.15,1.06 -1.67,1.66 l -1.07,1.23 c -2.67,3.08 -4.28,6.85 -4.67,10.9 l -0.25,2.64 c -0.3,3.18 0.92,6.38 3.26,8.56 l 3.14,2.92 c 1.78,1.65 4.09,2.57 6.52,2.57 0.14,0 0.27,0 0.41,-0.01 l 6.79,-0.29 h 0.05 c 0.53,0 0.99,0.35 1.13,0.86 l 1.67,6.03 c 0.36,1.29 0.43,2.62 0.22,3.95 l -0.11,0.67 c -0.45,2.81 -0.15,5.69 0.86,8.35 l 3.52,9.23 c 0.91,2.4 3.25,4.01 5.82,4.01 0.53,0 1.07,-0.07 1.59,-0.21 l 1.16,-0.31 c 3.19,-0.84 5.95,-2.96 7.58,-5.83 l 3.83,-6.74 c 0.88,-1.54 1.61,-2.53 2.46,-3.3 1.42,-1.3 2.26,-3.12 2.29,-5 l 0.22,-5.12 c 0.01,-0.14 0,-0.28 -0.01,-0.42 -0.08,-0.86 0.24,-1.72 0.88,-2.3 l 3.03,-2.79 c 1.71,-1.58 2.86,-3.62 3.33,-5.9 l 0.33,-1.6 c 0.28,-1.36 -0.07,-2.75 -0.95,-3.83 -0.03,-0.04 -0.07,-0.08 -0.1,-0.12 l 4.43,-2.59 c 1.35,-0.79 2.55,-2.58 1.83,-5.23 -0.07,-0.24 -0.16,-0.53 -0.29,-0.84 l 3.86,0.63 c 0.16,0.03 0.31,0.11 0.42,0.24 l 2.67,3.15 c 0.55,0.65 0.96,1.39 1.22,2.21 l 1.69,5.34 c 0.64,2.02 2.49,3.37 4.61,3.37 1.14,0 2.25,-0.41 3.12,-1.15 l 0.93,-0.79 c 0.95,-0.81 1.55,-1.94 1.68,-3.18 l 0.09,-0.9 c 0.12,-1.15 0.73,-2.19 1.66,-2.87 l 1.93,-1.39 1.17,2.64 c 0.54,1.23 1.65,2.1 2.94,2.37 l 0.25,2.08 c -0.66,0.15 -1.27,0.48 -1.76,0.97 l -0.1,0.1 c -1.35,1.35 -1.42,3.54 -0.15,4.97 l 7.22,8.15 c 1.2,1.36 2.78,2.29 4.55,2.69 l 9.13,2.05 c 0.26,0.06 0.53,0.09 0.8,0.09 1.22,0 2.34,-0.6 3.02,-1.62 0.65,-0.98 0.8,-2.19 0.42,-3.26 -0.38,-1.07 -1.26,-1.91 -2.35,-2.25 l -6.64,-2.05 c -0.9,-0.28 -1.58,-1.02 -1.77,-1.94 l -0.57,-2.69 c -0.17,-0.79 -0.46,-1.54 -0.86,-2.24 0.4,-0.23 0.76,-0.54 1.06,-0.91 l 1.55,-1.89 c 1.59,-1.94 1.68,-4.73 0.21,-6.77 l -1.05,-1.45 4.07,0.12 h 0.17 c 2.33,0 4.46,-1.37 5.43,-3.5 l 1.6,-3.54 c 0.67,-1.49 0.9,-3.13 0.68,-4.72 0.58,0.32 1.24,0.51 1.93,0.51 1.04,0 2.02,-0.4 2.77,-1.14 l 1.36,-1.34 c 1.01,-1 1.41,-2.47 1.04,-3.84 l -0.56,-2.08 0.91,-0.97 1.97,-0.14 c 1.61,-0.12 2.97,-1.18 3.47,-2.71 l 3.3,-10.1 c 0.67,-2.06 0.1,-4.3 -1.42,-5.78 l 0.89,-0.82 c 0.92,-0.84 2.11,-1.31 3.36,-1.31 h 0.13 l 1.06,0.03 c 0.09,0 0.18,0 0.26,0 0.93,0 1.85,-0.13 2.73,-0.39 -0.59,1.11 -0.86,2.38 -0.76,3.66 l 0.16,1.96 c 0.18,2.3 2.06,4.03 4.37,4.03 1.32,0 2.55,-0.59 3.39,-1.62 l 3.93,-4.86 c 0.7,-0.86 1,-1.98 0.83,-3.08 l -0.07,-0.46 2.87,-0.42 c 0.91,-0.13 1.8,-0.47 2.56,-0.98 l 4.96,-3.32 c 1.99,-1.33 2.81,-3.84 1.98,-6.09 l -0.88,-2.4 c -0.91,-2.48 -3.11,-4.22 -5.73,-4.54 L 151.65,8.65 132.52,5.83 C 131.7,5.77 130.84,5.7 129.99,5.7 Z M 69.45,49.66 69.71,49.3 c 0.3,0.15 0.61,0.31 0.94,0.47 -0.39,-0.03 -0.78,-0.07 -1.2,-0.11 z m -21.9,3.57 c 0.33,-0.47 0.79,-0.82 1.33,-1.03 l 0.56,-0.22 c 0.03,-0.01 0.07,-0.02 0.1,-0.02 0.04,0 0.15,0.01 0.23,0.11 l 0.53,0.7 c -0.28,0.01 -0.55,0.04 -0.82,0.09 z m 8.46,3.65 c 0.24,0 0.49,-0.02 0.73,-0.05 0.36,-0.05 0.7,-0.14 1.03,-0.26 l 1.1,1.2 c 0.06,0.07 0.12,0.13 0.19,0.19 -0.26,0.19 -0.5,0.42 -0.71,0.68 l -0.54,0.67 -2.43,-1.85 c -0.01,-0.21 -0.04,-0.42 -0.08,-0.62 0.23,0.03 0.47,0.04 0.71,0.04 z"
           style="fill:#424242"
           id="path29"
           inkscape:connector-curvature="0" />
        <path
           d="m 159.83,39.97 c 0.01,0 0.01,0 0.02,0 0.87,0.02 1.53,0.8 1.41,1.67 l -0.53,3.66 c -0.13,0.89 0.22,1.79 0.93,2.36 0.69,0.55 0.69,1.6 0.01,2.16 -0.78,0.63 -1.65,1.37 -1.87,1.65 -0.24,0.31 -0.32,2.27 -0.35,3.91 -0.03,1.46 -0.79,2.81 -2.03,3.59 l -6.37,4 c -0.11,0.07 -0.22,0.1 -0.33,0.1 -0.31,0 -0.6,-0.23 -0.63,-0.58 l -0.14,-1.9 c -0.02,-0.21 0.07,-0.41 0.24,-0.54 l 3.13,-2.46 c 1.11,-0.88 2,-2.01 2.59,-3.3 l 2.27,-5.02 c 0.35,-0.78 0.57,-1.63 0.62,-2.49 l 0.42,-6.21 c 0,-0.34 0.28,-0.6 0.61,-0.6 m 0,-3 c -1.9,0 -3.49,1.49 -3.62,3.38 l -0.42,6.21 c -0.03,0.5 -0.16,0.99 -0.36,1.45 l -2.27,5.02 c -0.38,0.85 -0.97,1.6 -1.7,2.18 l -3.13,2.46 c -0.95,0.75 -1.47,1.91 -1.38,3.12 l 0.14,1.9 c 0.14,1.88 1.73,3.36 3.62,3.36 0.68,0 1.35,-0.19 1.93,-0.56 l 6.37,-4 c 2.11,-1.32 3.39,-3.59 3.43,-6.08 0.02,-1.24 0.06,-2 0.1,-2.44 0.23,-0.2 0.55,-0.47 1.02,-0.85 1.03,-0.84 1.62,-2.08 1.61,-3.41 0,-1.24 -0.53,-2.41 -1.44,-3.24 l 0.49,-3.41 c 0.18,-1.26 -0.18,-2.54 -1,-3.51 -0.82,-0.97 -2.02,-1.55 -3.29,-1.58 h -0.04 z"
           style="fill:#424242"
           id="path31"
           inkscape:connector-curvature="0" />
        <path
           d="m 144.75,66.11 c 0.3,0 0.55,0.21 0.61,0.5 l 0.25,1.18 c 0.12,0.59 0,1.2 -0.35,1.7 -0.31,0.44 -0.45,0.98 -0.38,1.51 l 0.08,0.68 h -0.67 l -1.04,-1.66 c -0.41,-0.66 -0.44,-1.48 -0.07,-2.16 l 0.75,-1.41 c 0.11,-0.2 0.32,-0.33 0.55,-0.33 h 0.27 m 0,-3.01 h -0.27 c -1.34,0 -2.57,0.74 -3.2,1.92 l -0.75,1.41 c -0.86,1.62 -0.8,3.6 0.17,5.16 l 1.04,1.66 0.88,1.42 h 1.67 0.67 3.38 l -0.4,-3.36 -0.05,-0.38 c 0.69,-1.12 0.93,-2.47 0.66,-3.77 L 148.3,66 c -0.35,-1.67 -1.85,-2.89 -3.55,-2.89 z"
           style="fill:#424242"
           id="path33"
           inkscape:connector-curvature="0" />
        <path
           d="m 140.72,82.61 c 0.16,0 0.32,0.03 0.47,0.08 0.58,0.2 0.97,0.75 0.97,1.36 v 1.71 c 0,0.12 -0.01,0.23 -0.04,0.34 l -1.05,4.28 c -0.2,0.82 -0.93,1.37 -1.74,1.37 -0.14,0 -0.27,-0.02 -0.41,-0.05 l -4.04,-0.94 c -0.45,-0.1 -0.82,-0.42 -1,-0.84 l -0.78,-1.83 c -0.29,-0.68 -0.02,-1.47 0.63,-1.82 l 6.29,-3.48 c 0.22,-0.12 0.46,-0.18 0.7,-0.18 m 0,-3 c -0.75,0 -1.49,0.19 -2.15,0.55 l -6.29,3.48 c -2,1.11 -2.83,3.52 -1.94,5.63 l 0.78,1.83 c 0.55,1.3 1.7,2.26 3.07,2.58 l 4.04,0.94 c 0.36,0.08 0.73,0.13 1.09,0.13 2.21,0 4.13,-1.5 4.66,-3.65 l 1.05,-4.28 c 0.08,-0.35 0.13,-0.7 0.13,-1.06 v -1.71 c 0,-1.89 -1.2,-3.58 -2.99,-4.19 -0.46,-0.17 -0.95,-0.25 -1.45,-0.25 z"
           style="fill:#424242"
           id="path35"
           inkscape:connector-curvature="0" />
        <path
           d="m 154.33,88.48 c 0.36,0 0.72,0.08 1.05,0.23 l 7.31,3.41 c 0.78,0.36 1.38,1.02 1.66,1.83 l 0.94,2.67 -0.18,0.97 -2.6,-2.32 c -0.38,-0.34 -0.87,-0.51 -1.35,-0.51 -0.51,0 -1.01,0.19 -1.4,0.56 -0.1,0.1 -0.24,0.16 -0.39,0.17 l -2.16,0.17 c -0.08,0.01 -0.16,0.01 -0.24,0.01 -0.89,0 -1.74,-0.38 -2.33,-1.06 l -3.22,-3.69 c -0.68,-0.78 -0.23,-2 0.79,-2.15 l 1.75,-0.26 c 0.12,-0.02 0.25,-0.03 0.37,-0.03 m 0,-3 c -0.27,0 -0.54,0.02 -0.81,0.06 l -1.75,0.26 c -1.56,0.23 -2.86,1.3 -3.4,2.77 -0.54,1.48 -0.24,3.13 0.8,4.32 l 3.22,3.69 c 1.16,1.33 2.83,2.09 4.59,2.09 0.16,0 0.31,-0.01 0.47,-0.02 l 2.16,-0.17 c 0.53,-0.04 1.04,-0.2 1.49,-0.45 l 2.01,1.8 3.97,3.55 0.98,-5.23 0.18,-0.97 0.15,-0.79 -0.27,-0.76 -0.94,-2.67 c -0.55,-1.56 -1.73,-2.85 -3.22,-3.55 L 156.65,86 c -0.72,-0.34 -1.52,-0.52 -2.32,-0.52 z"
           style="fill:#424242"
           id="path37"
           inkscape:connector-curvature="0" />
        <path
           d="m 150.11,97.35 c 0.14,0 0.28,0.01 0.42,0.02 l 3.28,0.38 c 0.38,0.04 0.63,0.41 0.53,0.77 l -0.52,2.1 c -0.08,0.33 0.12,0.67 0.45,0.76 l 2.27,0.59 c 0.13,0.03 0.26,0.05 0.39,0.05 0.85,0 1.58,-0.72 1.53,-1.62 l -0.09,-1.76 c -0.02,-0.36 0.27,-0.66 0.62,-0.66 0.01,0 0.02,0 0.03,0 l 0.43,0.02 c 0.24,0.01 0.45,0.16 0.55,0.38 l 0.42,0.96 c 0.94,2.17 2.28,4.14 3.95,5.81 l 3.25,3.25 c 0.74,0.74 1.05,1.79 0.84,2.81 l -1.81,8.7 c -0.17,0.83 -0.66,1.56 -1.35,2.04 l -1.16,0.8 c -0.66,0.45 -1.43,0.69 -2.21,0.69 -0.43,0 -0.86,-0.07 -1.28,-0.22 l -1.85,-0.64 c -1.2,-0.42 -2.19,-1.26 -2.8,-2.38 l -0.35,-0.65 c -0.18,-0.34 -0.53,-0.52 -0.87,-0.52 -0.26,0 -0.52,0.1 -0.71,0.3 -0.19,0.2 -0.45,0.3 -0.72,0.3 -0.22,0 -0.44,-0.07 -0.63,-0.22 l -1.41,-1.15 c -0.63,-0.52 -1.42,-0.79 -2.22,-0.79 -0.35,0 -0.69,0.05 -1.03,0.16 l -5.45,1.68 c -0.47,0.15 -0.95,0.22 -1.44,0.22 -1.05,0 -2.09,-0.34 -2.94,-0.99 l -1.38,-1.04 c -0.48,-0.37 -0.59,-1.05 -0.23,-1.54 v 0 c 0.18,-0.25 0.24,-0.56 0.19,-0.85 l -1.3,-6.94 c -0.21,-1.13 0.44,-2.25 1.53,-2.62 l 3.65,-1.24 c 0.81,-0.27 1.55,-0.73 2.16,-1.32 l 4.75,-4.62 c 0.68,-0.66 1.58,-1.02 2.51,-1.02 m 0,-3 v 0 c -1.73,0 -3.36,0.66 -4.6,1.87 l -4.75,4.62 c -0.29,0.28 -0.65,0.5 -1.03,0.63 l -3.65,1.24 c -2.49,0.84 -4,3.43 -3.52,6.01 l 1.18,6.28 c -0.73,1.71 -0.24,3.72 1.31,4.89 l 1.38,1.04 c 1.36,1.03 3.05,1.6 4.76,1.6 0.79,0 1.57,-0.12 2.32,-0.35 l 5.45,-1.68 c 0.05,-0.02 0.1,-0.02 0.15,-0.02 0.12,0 0.23,0.04 0.32,0.11 l 1.41,1.15 c 0.71,0.58 1.6,0.9 2.52,0.9 0.21,0 0.42,-0.02 0.63,-0.05 0.96,1.3 2.29,2.28 3.84,2.82 l 1.85,0.64 c 0.73,0.25 1.49,0.38 2.27,0.38 1.4,0 2.76,-0.42 3.91,-1.21 l 1.16,-0.8 c 1.34,-0.92 2.26,-2.3 2.59,-3.9 l 1.81,-8.7 c 0.42,-2.02 -0.2,-4.09 -1.66,-5.55 l -3.25,-3.25 c -1.41,-1.41 -2.53,-3.05 -3.32,-4.88 l -0.42,-0.96 c -0.55,-1.27 -1.8,-2.12 -3.18,-2.18 l -0.43,-0.02 h -0.06 -0.09 c -0.94,0 -1.84,0.37 -2.52,1.02 -0.59,-0.68 -1.42,-1.12 -2.32,-1.23 l -3.28,-0.38 c -0.27,-0.02 -0.52,-0.04 -0.78,-0.04 z"
           style="fill:#424242"
           id="path39"
           inkscape:connector-curvature="0" />
        <path
           d="m 82.95,99.32 c 0.45,0 0.88,0.27 1.05,0.73 l 0.84,2.28 c 0.19,0.51 0.18,1.07 -0.01,1.57 l -1.87,4.84 c -0.27,0.69 -0.93,1.14 -1.66,1.14 -0.06,0 -0.13,0 -0.19,-0.01 v 0 c -1.7,-0.18 -2.9,-1.75 -2.65,-3.44 l 0.34,-2.25 c 0.18,-1.16 0.75,-2.22 1.63,-3 l 1.78,-1.58 c 0.21,-0.19 0.48,-0.28 0.74,-0.28 m 0,-3 c -1.01,0 -1.98,0.37 -2.73,1.04 l -1.78,1.58 c -1.4,1.24 -2.32,2.94 -2.6,4.79 l -0.34,2.25 c -0.25,1.61 0.18,3.27 1.18,4.57 0.99,1.29 2.49,2.13 4.11,2.31 0.17,0.02 0.34,0.03 0.52,0.03 1.96,0 3.76,-1.23 4.46,-3.06 l 1.87,-4.84 c 0.46,-1.19 0.47,-2.5 0.03,-3.69 l -0.84,-2.28 c -0.61,-1.62 -2.16,-2.7 -3.88,-2.7 z"
           style="fill:#424242"
           id="path41"
           inkscape:connector-curvature="0" />
        <path
           d="m -16.66,76.46 c 0.61,0 1.21,0.09 1.8,0.26 2.19,0.65 6.05,1.79 7.91,2.33 0.52,0.15 0.75,0.77 0.44,1.23 l -0.46,0.68 c -0.24,0.36 -0.65,0.58 -1.08,0.58 -0.07,0 -0.14,-0.01 -0.2,-0.02 l -8.13,-1.29 c -0.38,-0.06 -0.75,-0.09 -1.13,-0.09 -0.36,0 -0.72,0.03 -1.08,0.08 l -1.48,0.22 c -0.2,0.03 -0.4,0.05 -0.61,0.05 -1.09,0 -2.14,-0.44 -2.91,-1.23 l -0.33,-0.34 c -0.31,-0.32 -0.16,-0.85 0.27,-0.95 1.35,-0.33 3.84,-0.95 5.5,-1.35 0.5,-0.1 0.99,-0.16 1.49,-0.16 m 0,-3 c -0.73,0 -1.47,0.09 -2.18,0.26 -1.67,0.4 -4.16,1.02 -5.52,1.35 -1.24,0.31 -2.23,1.26 -2.58,2.49 -0.35,1.23 -0.01,2.56 0.88,3.47 l 0.33,0.34 c 1.32,1.35 3.16,2.13 5.06,2.13 0.35,0 0.71,-0.03 1.05,-0.08 l 1.48,-0.22 c 0.21,-0.03 0.42,-0.05 0.63,-0.05 0.22,0 0.44,0.02 0.66,0.05 l 8.13,1.29 c 0.22,0.04 0.45,0.05 0.67,0.05 1.44,0 2.78,-0.72 3.58,-1.91 l 0.46,-0.68 c 0.67,-1 0.82,-2.28 0.41,-3.41 -0.41,-1.13 -1.35,-2.01 -2.5,-2.36 l -4.38,-1.29 -3.53,-1.04 c -0.86,-0.26 -1.75,-0.39 -2.65,-0.39 z"
           style="fill:#424242"
           id="path43"
           inkscape:connector-curvature="0" />
        <path
           d="m -2.61,80.09 c 0.07,0 0.14,0.01 0.21,0.02 2.13,0.35 6.69,2.88 5.77,3.68 -0.24,0.2 -0.54,0.31 -0.85,0.31 -0.11,0 -0.22,-0.01 -0.34,-0.04 l -6.6,-1.77 c -0.14,-0.04 -0.2,-0.2 -0.12,-0.32 l 0.85,-1.3 c 0.24,-0.37 0.65,-0.58 1.08,-0.58 m 0,-3 c -1.45,0 -2.8,0.73 -3.59,1.94 l -0.85,1.3 c -0.56,0.86 -0.68,1.94 -0.31,2.9 0.37,0.96 1.18,1.69 2.17,1.95 l 6.6,1.77 c 0.36,0.1 0.74,0.15 1.11,0.15 1.03,0 2.02,-0.37 2.8,-1.04 1,-0.86 1.4,-2.18 1.04,-3.46 -0.84,-3 -6.57,-5.17 -8.27,-5.45 -0.23,-0.04 -0.47,-0.06 -0.7,-0.06 z"
           style="fill:#424242"
           id="path45"
           inkscape:connector-curvature="0" />
      </g>
      <g
         clip-path="url(#SVGID_3_)"
         id="g287">
        <linearGradient
           id="SVGID_4_"
           gradientUnits="userSpaceOnUse"
           x1="173.8844"
           x2="173.8844"
           y1="7.6587"
           y2="152.3054">
          <stop
             offset="0"
             style="stop-color:#AEEA00"
             id="stop49" />
          <stop
             offset="0.2373"
             style="stop-color:#ADE903"
             id="stop51" />
          <stop
             offset="0.3915"
             style="stop-color:#A9E40B"
             id="stop53" />
          <stop
             offset="0.522"
             style="stop-color:#A2DC1A"
             id="stop55" />
          <stop
             offset="0.6386"
             style="stop-color:#98D12F"
             id="stop57" />
          <stop
             offset="0.7459"
             style="stop-color:#8BC34A"
             id="stop59" />
          <stop
             offset="1"
             style="stop-color:#8BC34A"
             id="stop61" />
        </linearGradient>
        <path
           d="m 174.75,118.71 c -0.18,0.12 -4.32,3.22 -3.43,5.15 0.89,1.92 1.65,5.56 3.57,3.02 1.92,-2.55 2.6,-9.96 -0.14,-8.17 z"
           style="fill:url(#SVGID_4_)"
           id="path64"
           inkscape:connector-curvature="0" />
        <linearGradient
           id="SVGID_5_"
           gradientUnits="userSpaceOnUse"
           x1="164.7636"
           x2="164.7636"
           y1="7.6587"
           y2="152.3054">
          <stop
             offset="0"
             style="stop-color:#AEEA00"
             id="stop66" />
          <stop
             offset="0.2373"
             style="stop-color:#ADE903"
             id="stop68" />
          <stop
             offset="0.3915"
             style="stop-color:#A9E40B"
             id="stop70" />
          <stop
             offset="0.522"
             style="stop-color:#A2DC1A"
             id="stop72" />
          <stop
             offset="0.6386"
             style="stop-color:#98D12F"
             id="stop74" />
          <stop
             offset="0.7459"
             style="stop-color:#8BC34A"
             id="stop76" />
          <stop
             offset="1"
             style="stop-color:#8BC34A"
             id="stop78" />
        </linearGradient>
        <path
           d="m 168.31,125.4 c 0.46,-0.93 1.98,-0.57 2.52,0.31 1.16,1.9 1.95,5.76 -7.47,8.99 -13.03,4.45 1.44,-2.31 4.95,-9.3 z"
           style="fill:url(#SVGID_5_)"
           id="path81"
           inkscape:connector-curvature="0" />
        <linearGradient
           id="SVGID_6_"
           gradientUnits="userSpaceOnUse"
           x1="-37.780701"
           x2="-37.780701"
           y1="7.6587"
           y2="152.3054">
          <stop
             offset="0"
             style="stop-color:#AEEA00"
             id="stop83" />
          <stop
             offset="0.2373"
             style="stop-color:#ADE903"
             id="stop85" />
          <stop
             offset="0.3915"
             style="stop-color:#A9E40B"
             id="stop87" />
          <stop
             offset="0.522"
             style="stop-color:#A2DC1A"
             id="stop89" />
          <stop
             offset="0.6386"
             style="stop-color:#98D12F"
             id="stop91" />
          <stop
             offset="0.7459"
             style="stop-color:#8BC34A"
             id="stop93" />
          <stop
             offset="1"
             style="stop-color:#8BC34A"
             id="stop95" />
        </linearGradient>
        <path
           d="m -0.47,91.95 -3.61,-2.66 c -2.26,-1.66 -4.9,-2.73 -7.67,-3.1 l -5.06,-0.68 c -2.08,-0.28 -4.12,0.7 -5.2,2.49 v 0 c -0.39,0.64 -1.11,0.99 -1.85,0.9 l -0.21,-0.03 c -0.87,-0.11 -1.55,-0.8 -1.65,-1.67 l -0.25,-2.28 c -0.11,-0.96 -0.92,-1.68 -1.88,-1.68 v 0 c -1.3,0 -2.22,-1.29 -1.79,-2.52 l 0.22,-0.63 c 0.3,-0.85 -0.3,-1.75 -1.2,-1.8 l -1.54,-0.09 c -0.58,-0.03 -1.15,0.17 -1.58,0.56 v 0 c -1.02,0.93 -2.64,0.67 -3.33,-0.53 l -0.08,-0.13 c -0.33,-0.58 -0.38,-1.28 -0.12,-1.9 l 0.73,-1.76 c 0.73,-1.76 2.32,-3 4.2,-3.29 l 2.5,-0.38 c 1.42,-0.21 2.78,0.64 3.2,2.01 l 0.01,0.05 c 0.41,1.32 1.71,2.16 3.08,1.98 v 0 c 0.71,-0.09 1.22,-0.72 1.17,-1.43 l -0.25,-3.89 c -0.02,-0.35 0.09,-0.69 0.31,-0.95 l 0.09,-0.11 c 4.33,-5.22 9.86,-9.32 16.11,-11.95 l 3.68,-1.54 c 2.26,-0.95 3.32,-3.57 2.34,-5.82 l -4.56,-10.5 c -0.43,-0.98 -1.63,-1.35 -2.53,-0.77 v 0 c -0.88,0.57 -2.07,0.23 -2.51,-0.72 l -1.76,-3.76 c -0.63,-1.34 -1.98,-2.2 -3.46,-2.2 h -0.28 c -1.97,0 -3.61,1.49 -3.8,3.45 l -0.86,8.96 c -0.08,0.82 -0.7,1.48 -1.52,1.61 v 0 c -0.58,0.09 -1.16,-0.1 -1.57,-0.52 l -7.79,-7.89 c -0.9,-0.91 -1.15,-2.27 -0.64,-3.44 v 0 c 1.21,-2.8 3.75,-4.8 6.75,-5.33 l 1.33,-0.24 c 2.35,-0.42 4,-2.55 3.81,-4.94 l -0.42,-5.13 c -0.18,-2.21 -2.21,-3.79 -4.39,-3.42 l -12.47,2.09 c -4.73,0.79 -9.59,-0.13 -13.69,-2.61 l -4.16,-2.51 c -1.02,-0.62 -2.26,-0.65 -3.28,-0.16 -0.93,0.45 -2.1,0.4 -2.9,1.06 -5.57,4.64 -26.04,5.2 -27.11,5.27 v 0 c -0.53,0.03 -0.99,0.37 -1.18,0.87 l -0.68,1.78 c -0.3,0.79 0.19,1.66 1.02,1.82 v 0 c 1.02,0.19 1.46,1.41 0.79,2.2 l -1.83,2.19 c 0,0 -0.01,0.01 -0.01,0.01 -0.39,0.48 -0.16,1.22 0.41,1.47 l 7.24,3.33 c 2.5,1.15 5.25,1.46 7.99,1.19 1.45,-0.14 2.93,0.17 4.23,0.94 l 0.64,0.38 c 3.05,1.81 5.64,4.3 7.58,7.27 l 2.16,3.31 c 1.57,2.41 2.47,5.18 2.62,8.05 l 0.21,4.25 c 0.11,2.29 0.78,4.51 1.93,6.49 l 8.49,14.51 c 1.2,2.06 3.08,3.64 5.32,4.48 l 8.77,3.29 c 0.24,0.09 0.46,0.25 0.61,0.46 l 3.58,4.81 c 0.27,0.36 0.66,0.62 1.1,0.72 l 0.45,0.1 c 1.28,0.29 1.88,1.76 1.18,2.86 l -0.23,0.36 c -1.1,1.73 -1.48,3.82 -1.05,5.83 l 1.33,6.21 c 0.44,2.04 1.47,3.91 2.98,5.36 l 1.3,1.25 c 1.8,1.74 2.5,4.33 1.82,6.74 l -6.22,21.92 c -0.51,1.79 -0.46,3.68 0.13,5.44 l 1.18,3.49 c 0.58,1.7 2.05,2.95 3.83,3.22 l 2.75,0.42 c 1.4,0.22 2.37,-1.37 1.53,-2.52 L -17,150.47 c -1.51,-2.06 -1.32,-4.91 0.44,-6.76 l 14.9,-15.63 c 1.23,-1.29 1.98,-2.97 2.12,-4.76 l 0.03,-0.44 c 0.14,-1.77 1.41,-3.24 3.14,-3.63 l 2.85,-0.64 c 1.11,-0.25 2.07,-0.97 2.62,-1.97 l 4.85,-8.78 c 1.11,-2.01 0.3,-4.53 -1.76,-5.52 L 5.15,98.95 C 3.57,98.19 2.37,96.81 1.84,95.13 v 0 C 1.42,93.87 0.62,92.75 -0.47,91.95 Z"
           style="fill:url(#SVGID_6_)"
           id="path98"
           inkscape:connector-curvature="0" />
        <linearGradient
           id="SVGID_7_"
           gradientTransform="matrix(-1,0,0,1,532.5348,0)"
           gradientUnits="userSpaceOnUse"
           x1="529.33337"
           x2="529.33337"
           y1="7.6587"
           y2="152.3054">
          <stop
             offset="0"
             style="stop-color:#AEEA00"
             id="stop100" />
          <stop
             offset="0.2373"
             style="stop-color:#ADE903"
             id="stop102" />
          <stop
             offset="0.3915"
             style="stop-color:#A9E40B"
             id="stop104" />
          <stop
             offset="0.522"
             style="stop-color:#A2DC1A"
             id="stop106" />
          <stop
             offset="0.6386"
             style="stop-color:#98D12F"
             id="stop108" />
          <stop
             offset="0.7459"
             style="stop-color:#8BC34A"
             id="stop110" />
          <stop
             offset="1"
             style="stop-color:#8BC34A"
             id="stop112" />
        </linearGradient>
        <path
           d="m -5.74,25.53 0.16,-2.34 C -5.53,22.5 -6.2,21.84 -7.36,21.43 l -1.27,-0.45 c -1.49,-0.52 -2.13,-1.45 -1.59,-2.3 v 0 c 0.39,-0.61 0.17,-1.28 -0.59,-1.8 l -2.63,-1.83 c -0.96,-0.66 -1.04,-1.53 -0.2,-2.23 L -4.69,7.18 C -4.02,6.62 -2.86,6.24 -1.53,6.15 L 3.36,5.81 C 4.67,5.73 6,5.93 6.96,6.37 l 12.29,2.32 c 1.27,0.58 1.69,1.47 1.07,2.26 L 4.84,26.12 c -0.52,0.66 -1.7,1.15 -3.14,1.3 l -2.17,0.23 c -2.77,0.29 -5.36,-0.76 -5.27,-2.12 z"
           style="fill:url(#SVGID_7_)"
           id="path115"
           inkscape:connector-curvature="0" />
        <radialGradient
           id="SVGID_8_"
           cx="61.666698"
           cy="12.3333"
           gradientUnits="userSpaceOnUse"
           r="103.9749">
          <stop
             offset="0"
             style="stop-color:#AEEA00"
             id="stop117" />
          <stop
             offset="0.2373"
             style="stop-color:#ADE903"
             id="stop119" />
          <stop
             offset="0.3915"
             style="stop-color:#A9E40B"
             id="stop121" />
          <stop
             offset="0.522"
             style="stop-color:#A2DC1A"
             id="stop123" />
          <stop
             offset="0.6386"
             style="stop-color:#98D12F"
             id="stop125" />
          <stop
             offset="0.7459"
             style="stop-color:#8BC34A"
             id="stop127" />
          <stop
             offset="1"
             style="stop-color:#8BC34A"
             id="stop129" />
        </radialGradient>
        <path
           d="m 37.49,32.46 v 0 c 0.36,-0.8 1.56,-0.57 1.58,0.31 v 0 c 0.03,1 1.08,1.63 1.98,1.2 l 1.99,-0.95 c 0.74,-0.35 1.33,-0.94 1.7,-1.68 v -0.01 c 0.6,-1.22 0.47,-2.68 -0.34,-3.78 l -3.86,-5.2 C 39.88,21.46 38.63,21.26 37.72,21.9 l -0.97,0.69 c -0.71,0.5 -1.07,1.36 -0.93,2.21 l 0.22,1.36 c 0.03,0.18 0,0.36 -0.08,0.51 l -1.09,2.08 c -0.69,1.33 -0.26,2.96 1,3.77 l 0.42,0.27 c 0.42,0.3 0.99,0.13 1.2,-0.33 z"
           style="fill:url(#SVGID_8_)"
           id="path132"
           inkscape:connector-curvature="0" />
        <radialGradient
           id="SVGID_9_"
           cx="61.666698"
           cy="12.3333"
           gradientUnits="userSpaceOnUse"
           r="103.9749">
          <stop
             offset="0"
             style="stop-color:#AEEA00"
             id="stop134" />
          <stop
             offset="0.2373"
             style="stop-color:#ADE903"
             id="stop136" />
          <stop
             offset="0.3915"
             style="stop-color:#A9E40B"
             id="stop138" />
          <stop
             offset="0.522"
             style="stop-color:#A2DC1A"
             id="stop140" />
          <stop
             offset="0.6386"
             style="stop-color:#98D12F"
             id="stop142" />
          <stop
             offset="0.7459"
             style="stop-color:#8BC34A"
             id="stop144" />
          <stop
             offset="1"
             style="stop-color:#8BC34A"
             id="stop146" />
        </radialGradient>
        <path
           d="m 189.55,20.83 -0.88,-2.4 c -0.52,-1.41 -1.78,-2.42 -3.28,-2.6 L 151.27,11.68 132.1,8.86 c -1.21,-0.18 -2.43,-0.2 -3.64,-0.07 l -19.8,4.7 c -2.53,0.6 -5.12,0.88 -7.71,0.83 L 77.16,13.85 c -1.06,0.1 -2.12,0.05 -3.17,-0.16 L 61.5,11.29 c -1.13,-0.22 -2.3,-0.06 -3.33,0.45 l -3.94,1.94 c -1.19,0.58 -2.08,1.64 -2.45,2.91 l -0.75,2.57 c -0.43,1.47 -1.38,2.68 -2.55,3.66 -0.95,0.8 -1.49,2 -1.43,3.24 l 0.12,2.88 c 0.03,0.62 0.42,1.19 1.06,1.4 0.5,0.17 1.05,0.04 1.47,-0.28 l 1.24,-0.94 c 0.64,-0.49 1.38,-0.26 1.6,0.34 l 0.58,1.63 c 0.56,1.57 2.37,2.31 3.88,1.56 0.2,-0.1 0.35,-0.29 0.42,-0.5 l 1.4,-3.82 c 0.45,-1.22 0.26,-2.7 -0.76,-3.51 -0.41,-0.33 -0.52,-0.91 -0.27,-1.37 l 3.35,-6.06 c 0.16,-0.28 0.5,-0.4 0.8,-0.27 l 0.39,0.17 c 0.3,0.13 0.45,0.48 0.34,0.79 l -1.15,3.17 c -0.09,0.26 -0.3,0.47 -0.56,0.56 l -0.09,0.03 c -0.52,0.19 -0.76,0.79 -0.53,1.29 l 0.32,0.69 c 0.72,1.55 2.32,2.5 4.02,2.4 0.2,-0.01 0.4,0.04 0.57,0.15 l 0.15,0.1 c 0.72,0.47 0.49,1.58 -0.36,1.73 l -1.35,0.23 c -0.33,0.06 -0.6,0.28 -0.72,0.59 l -0.3,0.77 c -0.14,0.36 -0.05,0.77 0.23,1.04 l 0.62,0.59 c 0.21,0.2 0.26,0.52 0.12,0.77 v 0 c -0.17,0.29 -0.53,0.4 -0.83,0.25 l -0.9,-0.47 c -0.5,-0.26 -1.1,-0.03 -1.31,0.48 l -1.38,3.41 c -0.16,0.39 -0.56,0.63 -0.98,0.59 l -5.21,-0.58 c -0.41,-0.04 -0.76,-0.31 -0.92,-0.68 l -0.37,-0.87 c -0.29,-0.67 -1.07,-0.97 -1.68,-0.57 -0.44,0.29 -0.62,0.82 -0.47,1.3 0.29,0.91 -0.39,1.84 -1.34,1.84 h -0.39 c -0.68,0 -1.26,0.48 -1.39,1.15 v 0 c -0.21,1.1 -0.95,2.01 -1.98,2.43 l -2.92,1.2 c -1.18,0.48 -1.71,1.87 -1.14,3.02 l 0.76,1.54 c 0.65,1.32 -0.41,2.85 -1.89,2.69 -2.07,-0.22 -3.86,1.44 -3.96,3.53 l -0.03,0.61 c -0.06,1.31 0.77,2.32 1.92,2.49 l 2.2,0.34 c 1.58,0.24 3.15,-0.47 4.02,-1.81 l 1.52,-2.35 c 0.68,-1.05 1.68,-1.86 2.84,-2.32 l 0.56,-0.22 c 1.37,-0.53 2.93,-0.09 3.82,1.09 l 1.99,2.65 c 0.5,0.66 1.32,1.07 2.14,0.95 1.49,-0.22 1.68,-1.69 0.86,-2.32 L 54.52,49.5 c -0.47,-0.37 -0.54,-1.13 0.1,-1.6 0.45,-0.33 1.08,-0.28 1.5,0.08 l 1.95,1.64 c 1,0.84 1.36,2.17 1.09,3.45 -0.06,0.3 0.02,0.61 0.23,0.84 l 1.7,1.85 c 0.5,0.54 1.39,0.33 1.6,-0.37 l 0.32,-1.07 c 0.15,-0.49 0.83,-0.38 1.33,-0.22 0.32,0.1 0.68,-0.01 0.87,-0.28 0.4,-0.58 0.74,-1.2 1.01,-1.82 0.11,-0.24 0.06,-0.52 -0.12,-0.72 L 65.79,50.92 C 65.5,50.59 65.48,50.11 65.73,49.75 l 2.55,-3.59 c 0.27,-0.38 0.77,-0.51 1.19,-0.3 2.13,1.07 8.26,4.15 8.41,4.23 0.18,0.09 -1.32,3.04 -1.32,3.18 0,0.1 -4.89,-0.35 -7.61,-0.6 -0.39,-0.04 -0.78,0.12 -1.03,0.42 -0.62,0.75 -1.19,1.53 -1.7,2.36 -0.22,0.35 -0.21,0.8 0.01,1.16 l 0.18,0.29 c 0.16,0.26 0.43,0.43 0.74,0.46 l 3.81,0.28 c 0.63,0.05 1.03,0.68 0.82,1.27 l -1.09,3.03 c -0.17,0.47 -0.67,0.73 -1.15,0.59 l -7.86,-2.26 c -0.36,-0.1 -0.76,0.02 -1,0.31 l -1.8,2.21 c -0.32,0.4 -0.9,0.47 -1.31,0.16 l -4.32,-3.29 c -0.59,-0.45 -0.85,-1.16 -0.87,-1.9 -0.03,-1.22 -1.14,-2.13 -2.34,-1.9 l -7.33,1.4 c -2.84,0.54 -5.42,2.03 -7.31,4.21 l -1.07,1.23 c -2.24,2.59 -3.62,5.81 -3.95,9.22 l -0.25,2.64 c -0.22,2.28 0.64,4.52 2.31,6.08 l 3.14,2.92 c 1.29,1.2 3,1.83 4.76,1.76 l 6.79,-0.29 c 1.94,-0.08 3.68,1.18 4.2,3.06 L 53,94.07 c 0.47,1.7 0.57,3.48 0.29,5.22 l -0.11,0.67 c -0.37,2.29 -0.12,4.64 0.7,6.81 L 57.4,116 c 0.59,1.54 2.25,2.4 3.84,1.98 l 1.16,-0.31 c 2.43,-0.64 4.49,-2.23 5.74,-4.41 l 3.83,-6.74 c 0.86,-1.5 1.77,-2.87 3.05,-4.03 0.81,-0.74 1.3,-1.77 1.31,-2.87 l 0.23,-5.16 c -0.18,-1.8 0.5,-3.57 1.83,-4.8 l 3.03,-2.79 c 1.24,-1.14 2.08,-2.64 2.42,-4.29 l 0.33,-1.6 c 0.25,-1.21 -0.97,-2.28 -2.1,-1.78 -2.26,1 -4.82,0.25 -5.83,-1.99 L 71.31,66.3 c -0.28,-0.63 0.18,-1.34 0.86,-1.34 v 0 c 0.35,0 0.68,0.2 0.84,0.51 l 4.59,8.84 c 1.04,2 3.54,2.73 5.49,1.59 l 5.89,-3.44 c 1.81,-1.06 -1.29,-5.49 -2.01,-4.99 l -0.85,0.58 c -0.49,0.33 -1.15,0.14 -1.4,-0.39 l -1.35,-3 c -0.26,-0.56 -0.18,-1.25 0.25,-1.7 0.56,-0.57 1.44,-0.59 2.02,-0.09 1.63,1.42 3.47,2.58 5.6,2.93 l 5.14,0.84 c 0.87,0.14 1.66,0.59 2.22,1.26 l 2.67,3.15 c 0.81,0.95 1.41,2.05 1.79,3.24 l 1.69,5.34 c 0.39,1.25 1.93,1.69 2.92,0.84 l 0.93,-0.79 c 0.36,-0.3 0.59,-0.74 0.64,-1.2 l 0.09,-0.9 c 0.21,-2 1.26,-3.81 2.89,-4.99 l 3.98,-2.87 c 0.49,-0.35 1.18,-0.17 1.42,0.39 l 2.19,4.96 c 0.26,0.58 0.93,0.81 1.51,0.59 0.64,-0.25 1.36,0.18 1.45,0.87 l 0.58,4.8 c 0.02,0.07 0.04,0.14 0.06,0.21 l 1.49,2.94 c 0.28,0.56 -0.34,1.14 -0.88,0.82 l -2.65,-1.57 c -0.25,-0.15 -0.56,-0.11 -0.76,0.1 l -0.1,0.1 c -0.23,0.23 -0.25,0.61 -0.03,0.86 l 7.22,8.15 c 0.78,0.88 1.81,1.49 2.96,1.75 l 9.13,2.05 c 0.25,0.06 0.51,-0.05 0.66,-0.26 l 0.02,-0.03 c 0.23,-0.35 0.06,-0.82 -0.34,-0.95 l -6.64,-2.05 c -1.94,-0.6 -3.4,-2.2 -3.82,-4.19 l -0.57,-2.69 c -0.16,-0.77 -0.51,-1.47 -1.03,-2.06 -1.18,-1.35 -3.28,-3.78 -3.22,-3.88 0.03,-0.05 0.06,-0.58 0.08,-1.23 0.03,-0.86 1.09,-1.24 1.66,-0.6 l 1.88,2.13 c 0.39,0.44 1.07,0.42 1.44,-0.03 l 1.55,-1.89 c 0.73,-0.9 0.77,-2.17 0.1,-3.11 l -1.11,-1.55 c -0.81,-1.13 -0.81,-2.68 0.05,-3.81 0.45,-0.59 1.18,-0.89 1.92,-0.87 l 4.68,0.13 c 1.19,0.03 2.29,-0.65 2.78,-1.74 l 1.6,-3.54 c 0.66,-1.46 0.66,-3.14 0,-4.6 l -1.89,-4.19 c -0.17,-0.38 -0.07,-0.83 0.24,-1.1 l 2.4,-2.1 c 0.39,-0.34 0.98,-0.31 1.32,0.08 l 1.47,1.62 c 0.11,0.13 0.19,0.28 0.23,0.45 l 0.64,3.12 c 0.15,0.74 1.06,1.01 1.59,0.48 l 1.36,-1.34 c 0.24,-0.24 0.34,-0.59 0.25,-0.92 l -0.85,-3.18 c -0.09,-0.32 0,-0.66 0.22,-0.89 l 2.25,-2.39 c 0.16,-0.17 0.38,-0.28 0.62,-0.3 l 2.77,-0.2 c 0.38,-0.03 0.71,-0.28 0.83,-0.65 l 3.3,-10.1 c 0.35,-1.07 -0.02,-2.24 -0.92,-2.92 l -1.4,-1.05 c -0.47,-0.36 -0.51,-1.06 -0.07,-1.46 l 2.68,-2.46 c 1.53,-1.4 3.53,-2.15 5.6,-2.09 l 1.06,0.03 c 1.58,0.04 3.12,-0.47 4.35,-1.45 l 1.7,-1.34 c 1.42,-1.12 3.17,-1.76 4.99,-1.82 l 0.74,-0.02 c 0.29,-0.01 0.45,0.32 0.27,0.54 l -6.1,7.51 c -0.6,0.73 -0.89,1.67 -0.81,2.61 l 0.16,1.96 c 0.1,1.24 1.65,1.72 2.43,0.75 l 3.93,-4.86 c 0.17,-0.21 0.24,-0.48 0.2,-0.74 l -0.2,-1.33 c -0.18,-1.17 0.63,-2.25 1.8,-2.42 l 3.75,-0.54 c 0.47,-0.07 0.93,-0.24 1.32,-0.51 l 4.96,-3.32 c 0.88,-0.54 1.22,-1.6 0.88,-2.55 z M 87.05,55.39 c -0.05,0.55 -0.56,0.94 -1.1,0.85 l -2.73,-0.46 c -0.57,-0.1 -0.92,-0.67 -0.74,-1.22 l 0.64,-1.99 c 0.08,-0.24 0.05,-0.51 -0.07,-0.73 l -1.74,-3.29 c -0.24,-0.45 -0.08,-1.01 0.37,-1.27 l 3.81,-2.16 c 0.54,-0.31 1.22,-0.02 1.38,0.58 L 87,46.19 c 0.11,0.43 -0.08,0.87 -0.47,1.08 l -0.8,0.42 c -0.53,0.28 -0.67,0.97 -0.29,1.44 0.68,0.83 1.62,1.99 1.76,2.24 0.15,0.29 -0.03,2.63 -0.15,4.02 z"
           style="fill:url(#SVGID_9_)"
           id="path149"
           inkscape:connector-curvature="0" />
        <linearGradient
           id="SVGID_10_"
           gradientUnits="userSpaceOnUse"
           x1="156.05409"
           x2="156.05409"
           y1="7.6587"
           y2="152.3054">
          <stop
             offset="0"
             style="stop-color:#AEEA00"
             id="stop151" />
          <stop
             offset="0.2373"
             style="stop-color:#ADE903"
             id="stop153" />
          <stop
             offset="0.3915"
             style="stop-color:#A9E40B"
             id="stop155" />
          <stop
             offset="0.522"
             style="stop-color:#A2DC1A"
             id="stop157" />
          <stop
             offset="0.6386"
             style="stop-color:#98D12F"
             id="stop159" />
          <stop
             offset="0.7459"
             style="stop-color:#8BC34A"
             id="stop161" />
          <stop
             offset="1"
             style="stop-color:#8BC34A"
             id="stop163" />
        </linearGradient>
        <path
           d="m 159.2,40.56 -0.42,6.21 c -0.06,0.86 -0.27,1.7 -0.62,2.49 l -2.27,5.02 c -0.58,1.29 -1.47,2.42 -2.59,3.3 l -3.13,2.46 c -0.16,0.13 -0.25,0.33 -0.24,0.54 l 0.14,1.9 c 0.03,0.47 0.56,0.73 0.96,0.48 l 6.37,-4 c 1.24,-0.78 2,-2.13 2.03,-3.59 0.03,-1.64 0.11,-3.6 0.35,-3.91 0.22,-0.29 1.09,-1.02 1.87,-1.65 0.68,-0.56 0.68,-1.6 -0.01,-2.16 v 0 c -0.7,-0.57 -1.06,-1.46 -0.93,-2.36 l 0.53,-3.66 c 0.12,-0.86 -0.53,-1.64 -1.41,-1.67 v 0 c -0.32,0 -0.61,0.26 -0.63,0.6 z"
           style="fill:url(#SVGID_10_)"
           id="path166"
           inkscape:connector-curvature="0" />
        <linearGradient
           id="SVGID_11_"
           gradientUnits="userSpaceOnUse"
           x1="144.28799"
           x2="144.28799"
           y1="7.6587"
           y2="152.3054">
          <stop
             offset="0"
             style="stop-color:#AEEA00"
             id="stop168" />
          <stop
             offset="0.2373"
             style="stop-color:#ADE903"
             id="stop170" />
          <stop
             offset="0.3915"
             style="stop-color:#A9E40B"
             id="stop172" />
          <stop
             offset="0.522"
             style="stop-color:#A2DC1A"
             id="stop174" />
          <stop
             offset="0.6386"
             style="stop-color:#98D12F"
             id="stop176" />
          <stop
             offset="0.7459"
             style="stop-color:#8BC34A"
             id="stop178" />
          <stop
             offset="1"
             style="stop-color:#8BC34A"
             id="stop180" />
        </linearGradient>
        <path
           d="m 144.75,66.11 h -0.27 c -0.23,0 -0.44,0.13 -0.55,0.33 l -0.75,1.41 c -0.36,0.68 -0.34,1.51 0.07,2.16 l 1.04,1.66 h 0.67 L 144.87,71 c -0.06,-0.53 0.07,-1.07 0.38,-1.51 v 0 c 0.35,-0.49 0.48,-1.11 0.35,-1.7 l -0.25,-1.18 c -0.05,-0.29 -0.31,-0.5 -0.6,-0.5 z"
           style="fill:url(#SVGID_11_)"
           id="path183"
           inkscape:connector-curvature="0" />
        <linearGradient
           id="SVGID_12_"
           gradientUnits="userSpaceOnUse"
           x1="137.57561"
           x2="137.57561"
           y1="7.6587"
           y2="152.3054">
          <stop
             offset="0"
             style="stop-color:#AEEA00"
             id="stop185" />
          <stop
             offset="0.2373"
             style="stop-color:#ADE903"
             id="stop187" />
          <stop
             offset="0.3915"
             style="stop-color:#A9E40B"
             id="stop189" />
          <stop
             offset="0.522"
             style="stop-color:#A2DC1A"
             id="stop191" />
          <stop
             offset="0.6386"
             style="stop-color:#98D12F"
             id="stop193" />
          <stop
             offset="0.7459"
             style="stop-color:#8BC34A"
             id="stop195" />
          <stop
             offset="1"
             style="stop-color:#8BC34A"
             id="stop197" />
        </linearGradient>
        <path
           d="m 133.1,88.09 0.78,1.83 c 0.18,0.42 0.55,0.73 1,0.84 l 4.04,0.94 c 0.96,0.22 1.92,-0.37 2.15,-1.32 l 1.05,-4.28 c 0.03,-0.11 0.04,-0.23 0.04,-0.34 v -1.71 c 0,-0.61 -0.39,-1.16 -0.97,-1.36 v 0 c -0.39,-0.13 -0.81,-0.1 -1.17,0.1 l -6.29,3.48 c -0.64,0.36 -0.91,1.14 -0.63,1.82 z"
           style="fill:url(#SVGID_12_)"
           id="path200"
           inkscape:connector-curvature="0" />
        <linearGradient
           id="SVGID_13_"
           gradientUnits="userSpaceOnUse"
           x1="158.1996"
           x2="158.1996"
           y1="7.6587"
           y2="152.3054">
          <stop
             offset="0"
             style="stop-color:#AEEA00"
             id="stop202" />
          <stop
             offset="0.2373"
             style="stop-color:#ADE903"
             id="stop204" />
          <stop
             offset="0.3915"
             style="stop-color:#A9E40B"
             id="stop206" />
          <stop
             offset="0.522"
             style="stop-color:#A2DC1A"
             id="stop208" />
          <stop
             offset="0.6386"
             style="stop-color:#98D12F"
             id="stop210" />
          <stop
             offset="0.7459"
             style="stop-color:#8BC34A"
             id="stop212" />
          <stop
             offset="1"
             style="stop-color:#8BC34A"
             id="stop214" />
        </linearGradient>
        <path
           d="m 157.22,95.67 2.16,-0.17 c 0.14,-0.01 0.28,-0.07 0.39,-0.17 v 0 c 0.76,-0.73 1.96,-0.75 2.75,-0.05 l 2.6,2.32 0.18,-0.97 -0.94,-2.67 c -0.29,-0.81 -0.89,-1.47 -1.66,-1.83 l -7.31,-3.41 c -0.44,-0.21 -0.94,-0.28 -1.42,-0.21 l -1.75,0.26 c -1.02,0.15 -1.47,1.37 -0.79,2.15 l 3.22,3.69 c 0.64,0.74 1.59,1.13 2.57,1.06 z"
           style="fill:url(#SVGID_13_)"
           id="path217"
           inkscape:connector-curvature="0" />
        <linearGradient
           id="SVGID_14_"
           gradientUnits="userSpaceOnUse"
           x1="152.00349"
           x2="152.00349"
           y1="7.6587"
           y2="152.3054">
          <stop
             offset="0"
             style="stop-color:#AEEA00"
             id="stop219" />
          <stop
             offset="0.2373"
             style="stop-color:#ADE903"
             id="stop221" />
          <stop
             offset="0.3915"
             style="stop-color:#A9E40B"
             id="stop223" />
          <stop
             offset="0.522"
             style="stop-color:#A2DC1A"
             id="stop225" />
          <stop
             offset="0.6386"
             style="stop-color:#98D12F"
             id="stop227" />
          <stop
             offset="0.7459"
             style="stop-color:#8BC34A"
             id="stop229" />
          <stop
             offset="1"
             style="stop-color:#8BC34A"
             id="stop231" />
        </linearGradient>
        <path
           d="m 159.46,98.01 -0.43,-0.02 c -0.37,-0.01 -0.67,0.29 -0.65,0.66 l 0.09,1.76 c 0.06,1.04 -0.92,1.83 -1.92,1.57 l -2.27,-0.59 c -0.33,-0.09 -0.53,-0.42 -0.45,-0.76 l 0.52,-2.1 c 0.09,-0.37 -0.16,-0.73 -0.53,-0.77 l -3.28,-0.38 c -1.08,-0.13 -2.15,0.24 -2.93,1 l -4.75,4.62 c -0.61,0.6 -1.35,1.05 -2.16,1.32 l -3.65,1.24 c -1.09,0.37 -1.75,1.49 -1.53,2.62 l 1.3,6.94 c 0.06,0.3 -0.01,0.61 -0.19,0.85 v 0 c -0.35,0.49 -0.25,1.18 0.23,1.54 l 1.38,1.04 c 1.25,0.95 2.88,1.23 4.38,0.77 l 5.45,-1.68 c 1.12,-0.35 2.34,-0.11 3.25,0.63 l 1.41,1.15 c 0.4,0.33 0.98,0.29 1.34,-0.08 v 0 c 0.47,-0.48 1.27,-0.38 1.59,0.22 l 0.35,0.65 c 0.6,1.11 1.6,1.96 2.8,2.38 l 1.85,0.64 c 1.17,0.41 2.47,0.23 3.49,-0.47 l 1.16,-0.8 c 0.7,-0.48 1.18,-1.21 1.35,-2.04 l 1.81,-8.7 c 0.21,-1.02 -0.1,-2.08 -0.84,-2.81 l -3.25,-3.25 c -1.67,-1.67 -3.01,-3.64 -3.95,-5.81 L 160,98.39 c -0.09,-0.22 -0.3,-0.37 -0.54,-0.38 z"
           style="fill:url(#SVGID_14_)"
           id="path234"
           inkscape:connector-curvature="0" />
        <radialGradient
           id="SVGID_15_"
           cx="61.666698"
           cy="12.3333"
           gradientUnits="userSpaceOnUse"
           r="103.9749">
          <stop
             offset="0"
             style="stop-color:#AEEA00"
             id="stop236" />
          <stop
             offset="0.2373"
             style="stop-color:#ADE903"
             id="stop238" />
          <stop
             offset="0.3915"
             style="stop-color:#A9E40B"
             id="stop240" />
          <stop
             offset="0.522"
             style="stop-color:#A2DC1A"
             id="stop242" />
          <stop
             offset="0.6386"
             style="stop-color:#98D12F"
             id="stop244" />
          <stop
             offset="0.7459"
             style="stop-color:#8BC34A"
             id="stop246" />
          <stop
             offset="1"
             style="stop-color:#8BC34A"
             id="stop248" />
        </radialGradient>
        <path
           d="m 78.8,104.18 -0.34,2.25 c -0.26,1.69 0.95,3.25 2.65,3.44 v 0 c 0.8,0.09 1.57,-0.38 1.86,-1.13 l 1.87,-4.84 c 0.19,-0.5 0.2,-1.06 0.01,-1.57 L 84,100.05 C 83.73,99.31 82.8,99.08 82.21,99.6 l -1.78,1.58 c -0.88,0.78 -1.45,1.84 -1.63,3 z"
           style="fill:url(#SVGID_15_)"
           id="path251"
           inkscape:connector-curvature="0" />
        <linearGradient
           id="SVGID_16_"
           gradientUnits="userSpaceOnUse"
           x1="-15.2192"
           x2="-15.2192"
           y1="7.6587"
           y2="152.3054">
          <stop
             offset="0"
             style="stop-color:#AEEA00"
             id="stop253" />
          <stop
             offset="0.2373"
             style="stop-color:#ADE903"
             id="stop255" />
          <stop
             offset="0.3915"
             style="stop-color:#A9E40B"
             id="stop257" />
          <stop
             offset="0.522"
             style="stop-color:#A2DC1A"
             id="stop259" />
          <stop
             offset="0.6386"
             style="stop-color:#98D12F"
             id="stop261" />
          <stop
             offset="0.7459"
             style="stop-color:#8BC34A"
             id="stop263" />
          <stop
             offset="1"
             style="stop-color:#8BC34A"
             id="stop265" />
        </linearGradient>
        <path
           d="m -18.14,76.64 c -1.66,0.4 -4.15,1.01 -5.5,1.35 -0.43,0.11 -0.58,0.64 -0.27,0.95 l 0.33,0.34 c 0.91,0.94 2.22,1.38 3.51,1.18 l 1.48,-0.22 c 0.73,-0.11 1.48,-0.11 2.21,0.01 l 8.13,1.29 c 0.5,0.08 1,-0.14 1.28,-0.56 l 0.46,-0.68 c 0.3,-0.45 0.08,-1.07 -0.44,-1.23 -1.86,-0.55 -5.72,-1.69 -7.91,-2.33 -1.07,-0.33 -2.2,-0.36 -3.28,-0.1 z"
           style="fill:url(#SVGID_16_)"
           id="path268"
           inkscape:connector-curvature="0" />
        <linearGradient
           id="SVGID_17_"
           gradientUnits="userSpaceOnUse"
           x1="-0.54299998"
           x2="-0.54299998"
           y1="7.6587"
           y2="152.3054">
          <stop
             offset="0"
             style="stop-color:#AEEA00"
             id="stop270" />
          <stop
             offset="0.2373"
             style="stop-color:#ADE903"
             id="stop272" />
          <stop
             offset="0.3915"
             style="stop-color:#A9E40B"
             id="stop274" />
          <stop
             offset="0.522"
             style="stop-color:#A2DC1A"
             id="stop276" />
          <stop
             offset="0.6386"
             style="stop-color:#98D12F"
             id="stop278" />
          <stop
             offset="0.7459"
             style="stop-color:#8BC34A"
             id="stop280" />
          <stop
             offset="1"
             style="stop-color:#8BC34A"
             id="stop282" />
        </linearGradient>
        <path
           d="m -3.69,80.67 -0.85,1.3 c -0.08,0.12 -0.02,0.28 0.12,0.32 l 6.6,1.77 c 0.41,0.11 0.86,0.01 1.18,-0.27 0.93,-0.79 -3.63,-3.33 -5.77,-3.68 -0.5,-0.09 -1,0.13 -1.28,0.56 z"
           style="fill:url(#SVGID_17_)"
           id="path285"
           inkscape:connector-curvature="0" />
      </g>
    </g>
    <g
       style="opacity:0.2"
       id="g293">
      <path
         d="m 64,7 c 31.43,0 57,25.57 57,57 0,31.43 -25.57,57 -57,57 C 32.57,121 7,95.43 7,64 7,32.57 32.57,7 64,7 M 64,4 C 30.86,4 4,30.86 4,64 4,97.14 30.86,124 64,124 97.14,124 124,97.14 124,64 124,30.86 97.14,4 64,4 Z"
         style="fill:#424242"
         id="path291"
         inkscape:connector-curvature="0" />
    </g>
  </g>
</svg>
